<svg width="89" height="61" viewBox="0 0 89 61" fill="none" xmlns="http://www.w3.org/2000/svg">
<path d="M14.3813 53.4521C13.4727 53.4521 12.6738 53.5148 12.6268 53.5775C12.4388 53.9691 12.6268 54.2981 13.0967 54.3608L13.6294 54.4234L13.6607 57.5096L13.7234 60.5958H14.867L14.9297 57.494L14.961 54.4078H15.5093C15.9636 54.4078 16.0576 54.3294 16.0576 53.9378C16.0576 53.5461 16.0419 53.4678 14.3657 53.4678L14.3813 53.4521Z" fill="black"/>
<path d="M10.7469 55.1125C10.8096 55.6452 10.8722 55.7235 11.3735 55.7235C11.8748 55.7235 11.9218 55.6922 11.9218 54.9089C11.9218 54.1256 11.8122 53.9846 11.5615 53.7496C10.8252 53.0603 8.92964 53.2953 8.61632 54.1099C8.491 54.5015 8.45966 59.2797 8.61632 59.828C8.74165 60.3449 9.44662 60.6583 10.4022 60.6583C11.3579 60.6583 11.9218 60.1413 11.9218 59.0447C11.9218 57.9481 11.9062 58.183 11.3579 58.183C10.8096 58.183 10.7939 58.2457 10.7939 58.841C10.7939 59.4363 10.4022 59.8906 9.93226 59.499C9.46228 59.1073 9.65028 58.7783 9.65028 57.0394C9.65028 55.3005 9.72861 54.7209 9.8226 54.5799C10.1203 54.1099 10.6999 54.4075 10.7469 55.0812V55.1125Z" fill="black"/>
<path d="M23.5773 57.3686L24.0473 56.9143C24.4859 56.5227 24.5173 56.366 24.4389 55.2224C24.3763 54.2981 24.2666 53.9065 24.0003 53.7185C23.7653 53.5461 23.1386 53.4521 22.3397 53.4521H21.0237L21.0864 57.0083L21.1491 60.5802H22.2927L22.3867 58.9666L22.4807 57.353L22.841 58.4966C23.405 60.3452 23.6243 60.6585 24.2823 60.6428C24.9402 60.6272 24.9402 60.6742 24.1099 58.6846L23.5616 57.3686H23.5773ZM23.311 55.849C23.2796 56.2407 23.1386 56.413 22.841 56.46C22.418 56.5227 22.4023 56.46 22.4023 55.4731C22.4023 54.4861 22.4337 54.4078 22.7783 54.4078C23.123 54.4078 23.405 55.0031 23.311 55.849Z" fill="black"/>
<path d="M85.4578 53.4679C84.7528 53.7499 84.6588 54.2356 84.6745 57.3218C84.7058 59.8283 84.7371 60.0006 85.1288 60.3296C85.6771 60.7839 87.0557 60.7839 87.557 60.3296C87.9487 59.985 88.074 59.2644 88.0113 57.3844L87.98 56.4915H87.1184C86.3351 56.4915 86.2567 56.5228 86.2567 56.9615C86.2567 57.4001 86.3664 57.4314 86.5387 57.4314C86.7894 57.4314 86.8207 57.6351 86.7894 58.5124C86.7267 59.468 86.6797 59.609 86.3507 59.609C86.0217 59.609 85.9747 59.4523 85.9121 56.9771L85.8494 54.3766H86.3507C86.7737 54.3766 86.8207 54.4549 86.8207 55.0345C86.8207 55.6142 86.852 55.6925 87.463 55.6925H88.1053L88.0113 54.8779C87.9487 54.4392 87.7607 53.9223 87.5883 53.7343C87.1967 53.3113 86.1314 53.1703 85.4264 53.4366L85.4578 53.4679Z" fill="black"/>
<path d="M82.4813 53.4521V55.3007L82.4499 57.165L81.9486 55.3007L81.4316 53.4521H80.194L80.2254 57.0083L80.288 60.5802L80.8207 60.6428L81.3377 60.7055V58.7472L81.369 56.789L81.651 57.7446C81.8076 58.2616 82.0426 59.1546 82.2149 59.6872C82.4656 60.6115 82.5439 60.6898 83.0452 60.6898H83.5935V53.4678H82.4499L82.4813 53.4521Z" fill="black"/>
<path d="M75.8702 57.2746L76.3245 56.9769C76.7162 56.7106 76.7788 56.5383 76.7788 55.4574C76.7788 54.3764 76.7005 54.1414 76.4028 53.8438C76.1052 53.5461 75.7762 53.4678 74.7892 53.4678H73.5516V60.6898H74.6796L74.7422 59.0135L74.8049 57.3529L75.3689 58.9665C75.9172 60.5018 75.9642 60.5801 76.5595 60.6428C76.8885 60.6741 77.1705 60.6271 77.1705 60.5175C77.1705 60.4078 76.8885 59.6402 76.5282 58.8099L75.8859 57.2903L75.8702 57.2746ZM75.1339 56.46C74.7109 56.5226 74.6952 56.46 74.6952 55.4574C74.6952 54.4547 74.7109 54.3921 75.1339 54.4547C75.4942 54.5174 75.5569 54.6271 75.5569 55.4574C75.5569 56.2876 75.4942 56.413 75.1339 56.46Z" fill="black"/>
<path d="M77.9225 53.4521L77.9538 57.0083L78.0165 60.5802L78.5491 60.6272L79.0504 60.6898V57.071V53.4521H78.4864H77.9225Z" fill="black"/>
<path d="M0.32901 52.4968L0.360342 56.523L0.423006 60.5805L0.955648 60.6431L1.47262 60.7058V57.0713H2.33425C3.14888 57.0713 3.19588 57.0556 3.19588 56.5073C3.19588 55.959 3.16455 55.9433 2.33425 55.9433H1.47262V53.6561H2.42825C3.35254 53.6561 3.38387 53.6404 3.38387 53.0921V52.5282H0.32901V52.4968Z" fill="black"/>
<path d="M5.89043 53.4834C4.96614 53.4051 5.06013 53.2171 4.54315 56.2093C3.71286 61.0344 3.71286 60.6741 4.46483 60.6741C5.21679 60.6741 4.9818 60.5958 5.18546 59.6715C5.27945 59.2015 5.37345 59.1388 5.90609 59.2015C6.43874 59.2642 6.53273 59.3268 6.61106 59.9221C6.68939 60.4391 6.79905 60.6114 7.15937 60.6428C7.41002 60.6741 7.67635 60.6428 7.75468 60.5488C7.88 60.4234 7.36303 56.7576 6.84605 54.3137C6.72072 53.5931 6.65806 53.5461 5.89043 53.4991V53.4834ZM5.82776 58.0109C5.46745 58.0109 5.45178 57.9326 5.57711 56.9143C5.63977 56.319 5.74943 55.7393 5.82776 55.6453C5.89043 55.5357 6.00009 55.8333 6.07842 56.3033C6.31341 57.7916 6.26641 58.0109 5.82776 58.0109Z" fill="black"/>
<path d="M17.6868 53.3895C16.8252 53.5618 16.6842 54.0945 16.6842 57.024C16.6842 59.9535 16.6999 59.7655 17.1542 60.2042C17.7808 60.8465 19.1438 60.8622 19.7234 60.2669C20.0681 59.8909 20.0994 59.6089 20.0994 57.0553C20.0994 54.5018 20.0367 54.2041 19.7704 53.8752C19.4257 53.4522 18.4231 53.2485 17.6712 53.4052L17.6868 53.3895ZM18.6738 59.5306C18.4388 59.7186 18.3291 59.7186 18.1098 59.5306C17.8905 59.3426 17.8278 58.8099 17.8278 56.9613C17.8278 55.1128 17.8905 54.5801 17.9531 54.5018C18.0158 54.4235 18.2508 54.3921 18.4858 54.4235C18.8461 54.4861 18.8618 54.6271 18.9244 56.883C18.9558 58.8413 18.9244 59.3112 18.6738 59.5306Z" fill="black"/>
<path d="M44.0997 54.4079L44.977 54.3452C45.7133 54.2826 45.8699 54.2356 45.8699 53.9066C45.8699 53.5776 45.7133 53.5306 44.2877 53.4679L42.7211 53.4053L42.7524 56.9771L42.8151 60.5489H44.3347C45.8386 60.5489 45.8543 60.5489 45.8543 60.079C45.8543 59.609 45.7603 59.609 44.8986 59.515C43.8647 59.421 43.9273 59.515 44.0057 57.9327C44.037 57.4628 44.0997 57.4158 44.8046 57.4158C45.5096 57.4158 45.5723 57.3531 45.5723 56.9458C45.5723 56.5385 45.4939 56.4758 44.7733 56.4758H43.9587L44.0213 55.4418L44.0997 54.3922V54.4079Z" fill="black"/>
<path d="M52.4339 53.4521C50.742 53.4521 50.7263 53.4521 50.7263 53.9221C50.7263 54.3921 50.8203 54.3921 51.2903 54.3921H51.8543V60.6742H52.9979V54.3921H53.5619C54.0319 54.3921 54.1259 54.3138 54.1259 53.9221C54.1259 53.5305 54.1102 53.4521 52.4183 53.4521H52.4339Z" fill="black"/>
<path d="M48.3295 54.4393C48.7525 54.3453 49.0188 54.6899 49.0188 55.3009C49.0188 55.9119 49.1284 55.7396 49.5828 55.7396C50.0371 55.7396 50.1467 55.6769 50.1467 55.1913C50.1467 54.267 49.8491 53.703 49.1754 53.4837C48.2668 53.1547 47.6872 53.2487 47.0605 53.8126C46.7629 54.0633 46.7159 54.4706 46.7159 57.0242C46.7159 59.5777 46.7472 59.9694 47.0919 60.314C47.4365 60.6587 47.7185 60.69 48.3295 60.69C49.5044 60.69 50.1311 60.079 50.1311 58.9824C50.1311 57.8858 50.1154 58.1991 49.5201 58.2618C48.9718 58.3244 48.8935 58.3714 48.9561 58.8101C49.0188 59.3741 48.5801 59.844 48.1415 59.6717C47.8908 59.5777 47.8595 59.1704 47.8908 57.0398C47.9535 54.7369 47.9848 54.5176 48.3138 54.4549L48.3295 54.4393Z" fill="black"/>
<path d="M41.0448 57.3843L41.4991 56.9457C41.8908 56.5853 41.9691 56.3347 41.9691 55.4417C41.9691 54.5488 41.8908 54.2981 41.4991 53.9221C41.1075 53.4991 40.8725 53.4521 39.7915 53.4521H38.5539L38.5853 57.0083L38.6479 60.5802H39.7915L39.8855 58.9822L39.9795 57.3843L40.5122 59.0136C40.8673 60.1206 41.2641 60.6742 41.7028 60.6742C42.0631 60.6742 42.3451 60.6428 42.3451 60.5958C42.3451 60.5332 42.0474 59.8125 41.6871 58.9352L41.0448 57.3686V57.3843ZM40.6218 56.225C40.1519 56.789 39.8855 56.5227 39.8855 55.4417C39.8855 54.3608 39.9639 54.3921 40.1519 54.3921C40.7158 54.3921 41.0605 55.708 40.6218 56.225Z" fill="black"/>
<path d="M53.1076 27.2745C51.6193 25.7706 50.3191 25.0499 48.2982 24.6113C47.3112 24.4233 45.1963 24.345 39.1962 24.345H31.3476V25.0029C31.3476 25.5356 31.4416 25.7236 31.8176 25.8959L32.2876 26.0996V48.4862L31.8176 48.7212C31.4416 48.8935 31.3476 49.0658 31.3476 49.6768V50.3974H38.6949C43.0657 50.3974 46.5749 50.3191 47.3739 50.1938C51.9327 49.4888 54.7369 46.8883 56.1155 42.0945C56.4914 40.7942 56.5541 40.1676 56.5541 37.285C56.5541 34.4025 56.4914 33.7602 56.0998 32.4286C55.4575 30.204 54.6585 28.7941 53.1389 27.2745H53.1076ZM50.4444 40.2772C49.9117 42.5645 48.8778 43.9901 47.2642 44.7107C46.3399 45.1337 45.9639 45.165 42.2198 45.2277L38.1623 45.306V29.2327L42.0161 29.3424C45.306 29.4207 46.0109 29.4991 46.9352 29.8437C48.0632 30.2824 49.2381 31.3633 49.8491 32.5226C50.6637 34.1049 50.9457 38.0057 50.4131 40.2772H50.4444Z" fill="black"/>
<path d="M57.071 52.7629C57.0084 52.8882 56.9927 54.7211 57.0397 56.789L57.1024 60.5802H58.246L58.3087 58.8099L58.3713 57.0553H59.1076C59.8283 57.0553 59.8753 57.024 59.8753 56.4914C59.8753 55.9587 59.8439 55.9274 59.1076 55.9274H58.34V53.6402H59.2956C60.2199 53.6402 60.2512 53.6245 60.2512 53.0762V52.5122H58.7316C57.6037 52.5122 57.165 52.5905 57.1024 52.7785L57.071 52.7629Z" fill="black"/>
<path d="M27.4311 54.5331C27.2587 55.144 27.0707 55.7707 27.0081 55.9273C26.9454 56.084 26.7261 55.5827 26.5068 54.8307C26.1308 53.4834 26.1308 53.4678 25.4728 53.4678C24.8149 53.4678 24.8462 53.4834 24.8462 53.5304C24.8462 53.5774 25.1908 54.5174 25.6138 55.6767C26.2405 57.4313 26.3814 57.9796 26.3814 59.2172V60.7054H27.5251V59.1232C27.5251 57.7759 27.6191 57.2589 28.2614 55.5043L28.9977 53.4678H28.3554C27.7444 53.4678 27.7131 53.4991 27.4311 54.5487V54.5331Z" fill="black"/>
<path d="M34.7628 52.8571C34.4338 52.5908 34.0265 52.4968 33.1022 52.4968H31.8802V60.7058L33.1178 60.6275C34.0891 60.5648 34.4494 60.4551 34.7941 60.1261C35.1857 59.7032 35.2171 59.5622 35.2171 56.4603C35.2171 53.3585 35.2171 53.2018 34.7628 52.8415V52.8571ZM33.9951 59.1079C33.9325 59.2019 33.7131 59.3429 33.4938 59.3742C33.1335 59.4368 33.1178 59.3115 33.0552 56.523L32.9925 53.6248H33.4625C33.7915 53.6248 33.9638 53.7501 34.0265 54.0948C34.1831 54.7214 34.1361 58.8259 33.9638 59.0922L33.9951 59.1079Z" fill="black"/>
<path d="M36.2667 53.4521L36.3137 57.0083L36.3607 60.5802H36.9246H37.4729L37.4886 57.024L37.5043 53.4521H36.8776H36.2667Z" fill="black"/>
<path d="M67.2226 53.4679C66.2513 53.1233 65.1234 53.3739 64.8884 53.9849C64.81 54.1572 64.7787 55.5828 64.7787 57.1651C64.7944 59.8126 64.8414 60.0319 65.2017 60.3453C65.75 60.8152 67.0973 60.7996 67.6769 60.3296C68.1156 59.985 68.1312 59.8126 68.2096 57.5411C68.2879 54.5959 68.0999 53.7812 67.2383 53.4836L67.2226 53.4679ZM66.8466 57.0084C66.784 59.4836 66.7683 59.6403 66.408 59.6403C66.0477 59.6403 66.032 59.4836 65.9693 57.0084L65.9067 54.4079H66.8936L66.831 57.0084H66.8466Z" fill="black"/>
<path d="M63.0868 59.5305H62.1312V53.4521H60.9875V60.6742H64.0267V60.1102C64.0267 59.5619 64.0111 59.5462 63.0711 59.5462L63.0868 59.5305Z" fill="black"/>
<path d="M60.0946 18.2665L74.3976 29.0133L74.4603 32.4911L74.4916 35.9533H67.9276C64.3087 35.9533 61.3635 36.016 61.3635 36.063C61.3635 36.11 62.0998 37.2066 63.0398 38.4442L64.7004 40.6844H74.4916V50.413L77.4995 50.3503L80.4917 50.2877L80.5543 41.3894L80.5857 32.4911L84.2985 32.5538C86.3351 32.5851 88.0113 32.5695 88.0113 32.5225C88.0113 32.4755 87.087 31.7235 85.9591 30.8619C84.8311 30.0316 82.1366 27.9323 79.9277 26.2561C77.7345 24.5642 74.3193 21.9636 72.314 20.4597C70.3401 18.9558 66.9876 16.4335 64.904 14.8356C62.8048 13.2534 60.1103 11.2011 58.9197 10.2925C57.729 9.38386 54.2199 6.73632 51.165 4.41775C48.1101 2.09919 45.5096 0.203613 45.3999 0.203613C45.1336 0.203613 45.3843 7.04963 45.6349 7.33162C45.7446 7.42562 52.246 12.3447 60.1259 18.2665H60.0946Z" fill="#EFE43A"/>
<path d="M72.0477 53.7499C71.6091 53.3583 70.5594 53.2173 69.9015 53.4679C69.1338 53.7499 68.9458 54.6429 69.0242 57.5254C69.0868 59.8126 69.1025 59.985 69.5412 60.3139C70.0895 60.7526 71.4054 60.7839 72.0007 60.3766C72.3924 60.0946 72.4237 59.985 72.4237 57.0868C72.4237 54.1886 72.3924 54.0476 72.0634 53.7656L72.0477 53.7499ZM71.2331 57.0084C71.1704 59.4836 71.1547 59.6403 70.7944 59.6403C70.4341 59.6403 70.4184 59.4836 70.3558 57.0084L70.2931 54.4079H71.2801L71.2174 57.0084H71.2331Z" fill="black"/>
<path d="M7.39433 41.1858C7.41 45.9326 7.42566 49.9587 7.45699 50.0684C7.47266 50.2564 8.24029 50.3347 10.4649 50.366L13.4727 50.4287V40.7158H23.2639L25.0342 38.3346L26.7888 35.9534H13.645V28.935L27.5877 18.4702C35.2327 12.7051 41.7341 7.80164 42.0161 7.56666L42.5331 7.12801L42.6427 3.55617C42.7054 1.59793 42.7211 0 42.6741 0C42.6271 0 41.1075 1.14361 39.2902 2.50655C30.6896 9.05492 27.7444 11.2795 25.2222 13.1907C23.7183 14.3343 20.5694 16.7312 18.2038 18.5172C10.5902 24.2979 5.98439 27.7914 2.96087 30.1413L0 32.4285L3.6815 32.4912L7.363 32.5225V41.1701L7.39433 41.1858Z" fill="#EFE43A"/>
</svg>
